<svg width="48" height="48" viewBox="0 0 48 48" fill="none" xmlns="http://www.w3.org/2000/svg">
<circle cx="23.9495" cy="24.1697" r="23.3899" fill="#D45383"/>
<path d="M23.6 24.668C19.4702 24.668 16.0378 21.2384 16.0378 17.1803C16.0378 12.9818 19.4702 9.55078 23.6015 9.55078C27.873 9.55078 31.1637 12.9803 31.1637 17.1803C31.1605 18.167 30.9629 19.1435 30.5822 20.0539C30.2016 20.9643 29.6454 21.7908 28.9453 22.4862C28.2453 23.1816 27.4151 23.7324 26.5022 24.107C25.5893 24.4816 24.6116 24.6727 23.6249 24.6694L23.6 24.668ZM23.6 13.9612C21.8516 13.9612 20.5213 15.4304 20.5213 17.1817C20.5213 18.9301 21.8516 20.2604 23.6015 20.2604C25.4215 20.2604 26.6816 18.9301 26.6816 17.1817C26.6831 15.429 25.4215 13.9612 23.6 13.9612ZM26.6115 30.8984L30.8845 35.0282C31.7251 35.936 31.7251 37.2663 30.8845 38.1069C29.9752 39.0147 28.5733 39.0147 27.873 38.1069L23.6015 33.907L19.4702 38.1069C19.0507 38.5265 18.4893 38.7355 17.8578 38.7355C17.3681 38.7355 16.8082 38.525 16.317 38.1069C15.4764 37.2663 15.4764 35.936 16.317 35.0268L20.6587 30.897C19.0908 30.4325 17.5867 29.775 16.181 28.9395C15.1299 28.3796 14.9209 26.9806 15.4808 25.9296C16.181 24.8799 17.4412 24.6007 18.5624 25.301C20.0807 26.2275 21.825 26.7177 23.6037 26.7177C25.3823 26.7177 27.1266 26.2275 28.6449 25.301C29.7662 24.6007 31.095 24.8799 31.7251 25.9296C32.3566 26.9806 32.0745 28.3782 31.0935 28.9395C29.7647 29.7801 28.2239 30.4102 26.6129 30.8999L26.6115 30.8984Z" fill="white"/>
</svg>
