<svg width="48" height="48" viewBox="0 0 48 48" fill="none" xmlns="http://www.w3.org/2000/svg">
<circle cx="24.1697" cy="24.1697" r="23.3899" fill="#D45383"/>
<path fill-rule="evenodd" clip-rule="evenodd" d="M24.3079 32.0638H25.7697C25.7697 32.0638 26.2083 31.9907 26.4276 31.7715C26.6469 31.5522 26.6469 31.1136 26.6469 31.1136C26.6469 31.1136 26.6469 29.2132 27.524 28.9208C28.4011 28.6284 29.5706 30.8212 30.7401 31.6253C31.6172 32.2831 32.275 32.1369 32.275 32.1369L35.4912 32.0638C35.4912 32.0638 37.1723 31.9907 36.3683 30.602C36.2952 30.5289 35.9297 29.6517 33.9562 27.8244C31.9096 25.924 32.202 26.2894 34.614 23.0002C36.0759 21.0267 36.6607 19.8572 36.5145 19.2725C36.3683 18.7608 35.2719 18.907 35.2719 18.907H31.6172C31.6172 18.907 31.3248 18.8339 31.1786 18.9801C30.9594 19.1263 30.8863 19.3456 30.8863 19.3456C30.8863 19.3456 30.3015 20.8805 29.5706 22.1962C27.9625 24.9007 27.3047 25.0469 27.0854 24.9007C26.5007 24.5352 26.6469 23.2926 26.6469 22.4886C26.6469 19.8572 27.0854 18.7608 25.8428 18.4685C25.4774 18.3954 25.185 18.3223 24.1617 18.3223C22.846 18.3223 21.7496 18.3223 21.1648 18.6146C20.7263 18.8339 20.4339 19.2725 20.6532 19.2725C20.8725 19.2725 21.4572 19.4187 21.7496 19.7841C22.042 20.442 22.042 21.5384 22.042 21.5384C22.042 21.5384 22.2612 24.6814 21.5303 25.0469C21.0187 25.3392 20.3608 24.7545 18.899 22.2693C18.168 21.0267 17.5833 19.5649 17.5833 19.5649C17.5833 19.5649 17.5102 19.2725 17.2909 19.1263C17.0716 18.9801 16.7061 18.907 16.7061 18.907H13.2708C13.2708 18.907 12.7591 18.907 12.5398 19.1263C12.3936 19.3456 12.5398 19.711 12.5398 19.711C12.5398 19.711 15.2443 25.9971 18.3142 29.2132C21.1648 32.2831 24.3079 32.0638 24.3079 32.0638Z" fill="white"/>
</svg>
