<svg width="47" height="48" viewBox="0 0 47 48" fill="none" xmlns="http://www.w3.org/2000/svg">
<circle cx="23.3899" cy="24.1697" r="23.3899" fill="#D45383"/>
<path d="M26.3136 24.3158L21.197 27.2396V21.3921L26.3136 24.3158Z" fill="white" stroke="white" stroke-width="2.1928" stroke-linecap="round" stroke-linejoin="round"/>
<path d="M8.771 25.3508V23.2808C8.771 19.0487 8.771 16.9319 10.094 15.5709C11.4184 14.2084 13.5031 14.15 17.6709 14.0315C19.6444 13.976 21.6618 13.9365 23.3897 13.9365C25.1176 13.9365 27.1335 13.976 29.1085 14.0315C33.2763 14.15 35.3609 14.2084 36.6839 15.5709C38.0069 16.9334 38.0084 19.0501 38.0084 23.2808V25.3493C38.0084 29.5829 38.0084 31.6982 36.6854 33.0607C35.3609 34.4217 33.2778 34.4816 29.1085 34.5986C27.135 34.6556 25.1176 34.6951 23.3897 34.6951C21.6618 34.6951 19.6458 34.6556 17.6709 34.5986C13.5031 34.4816 11.4184 34.4231 10.094 33.0607C8.76953 31.6982 8.771 29.5814 8.771 25.3508Z" stroke="white" stroke-width="2.1928"/>
</svg>
