<svg width="164" height="24" viewBox="0 0 164 24" fill="none" xmlns="http://www.w3.org/2000/svg">
<g clip-path="url(#clip0_100_523)">
<mask id="mask0_100_523" style="mask-type:luminance" maskUnits="userSpaceOnUse" x="0" y="0" width="164" height="25">
<path d="M164 0H0V24.1159H164V0Z" fill="white"/>
</mask>
<g mask="url(#mask0_100_523)">
<path d="M52.6035 0.133789H61.2727C64.0135 0.133789 66.2404 0.953044 67.6778 2.39047C68.944 3.65659 69.6664 5.47385 69.6664 7.66349V7.79755C69.6664 11.4991 67.6108 13.7931 64.6987 14.8208L71.8262 24.1082H67.2384L60.6546 15.6103C60.5875 15.6475 60.4833 15.6475 60.4162 15.6475H56.5806V24.1082H52.6035V0.133789ZM60.8631 12.0875C63.9465 12.0875 65.6595 10.4416 65.6595 7.93906V7.87203C65.6595 5.16849 63.9093 3.76086 60.9301 3.76086H56.5806V12.0875H60.8631Z" fill="#D45383"/>
<path d="M79.9964 14.5602L71.9155 0.133789H76.4736L82.0221 10.516L87.608 0.133789H92.0245L83.9735 14.5229V24.1157H79.9964V14.5602Z" fill="#D45383"/>
<path d="M151.979 14.5602L143.891 0.133789H148.449L153.998 10.516L159.583 0.133789H164L155.949 14.5229V24.1157H151.972V14.5602H151.979Z" fill="#D45383"/>
<path d="M11.1493 17.2712L3.97711 0.133789H0V24.1157H4.03669V9.99465L9.96512 24.1157H12.2665L18.2396 9.36903V24.1157H22.2614V0.133789H18.2545L11.1493 17.2712Z" fill="#D45383"/>
<path d="M116.595 0.133789L108.157 10.1958H107.941V0.133789H103.911V24.1157H107.941V14.009H108.112L116.915 24.1157H121.942L111.329 12.1248L121.622 0.133789H116.595Z" fill="#D45383"/>
<path d="M44.1581 24.1159H48.3065L39.5032 0H35.6676L26.8643 24.1159H30.8712L32.3757 19.8558H42.6536L44.1581 24.1159ZM33.6492 16.251L37.5146 5.31026L41.38 16.251H33.6492Z" fill="#D45383"/>
<path d="M140.8 24.1159H144.949L136.138 0H132.302L123.499 24.1159H127.506L129.01 19.8558H139.288L140.793 24.1159H140.8ZM130.291 16.251L134.157 5.31026L138.022 16.251H130.291Z" fill="#D45383"/>
</g>
</g>
<defs>
<clipPath id="clip0_100_523">
<rect width="164" height="24" fill="white"/>
</clipPath>
</defs>
</svg>
